<?xml version="1.0" encoding="utf-8"?>
<!-- Generator: Adobe Illustrator 26.5.0, SVG Export Plug-In . SVG Version: 6.00 Build 0)  -->
<svg version="1.1" id="Capa_1" xmlns="http://www.w3.org/2000/svg" xmlns:xlink="http://www.w3.org/1999/xlink" x="0px" y="0px"
	 viewBox="0 0 45.35 45.35" style="enable-background:new 0 0 45.35 45.35;" xml:space="preserve">
<style type="text/css">
	.st0{fill:#FFA247;}
</style>
<g>
	<path class="st0" d="M0,12.53c0.26-0.71,0.43-1.48,0.81-2.13c1.06-1.82,2.71-2.79,4.82-2.81c5.02-0.04,10.03-0.02,15.05-0.01
		c1.17,0,2.01,0.83,1.99,1.92c-0.01,1.07-0.85,1.86-2,1.87c-4.91,0-9.83,0-14.74,0c-1.4,0-2.14,0.73-2.14,2.12
		c0,8.68,0,17.36,0,26.04c0,1.38,0.73,2.12,2.1,2.12c8.68,0,17.35,0,26.03,0c1.35,0,2.09-0.76,2.09-2.13c0-4.94,0-9.88,0-14.81
		c0-1.39,1.24-2.3,2.5-1.87c0.79,0.27,1.28,0.98,1.28,1.93c0.01,1.7,0,3.4,0,5.1c0,3.15,0,6.3,0,9.45c0,3.11-1.45,5.08-4.42,6
		c-0.03,0.01-0.05,0.03-0.07,0.05c-9.62,0-19.24,0-28.87,0c-0.1-0.04-0.21-0.1-0.31-0.13c-1.5-0.45-2.66-1.35-3.39-2.73
		C0.4,41.87,0.24,41.15,0,40.47C0,31.16,0,21.84,0,12.53z"/>
	<path class="st0" d="M32.64,6.07c2.23,2.23,4.42,4.44,6.66,6.67c-0.08,0.09-0.18,0.21-0.29,0.32c-4.79,4.8-9.57,9.6-14.38,14.39
		c-0.27,0.27-0.68,0.49-1.05,0.57c-2.06,0.45-4.13,0.84-6.2,1.25c-0.85,0.17-1.4-0.37-1.23-1.22c0.43-2.14,0.85-4.29,1.3-6.42
		c0.05-0.25,0.18-0.51,0.35-0.69C22.7,16,27.62,11.08,32.53,6.16C32.56,6.13,32.6,6.1,32.64,6.07z"/>
	<path class="st0" d="M34.7,3.95c1.02-0.99,2-2.08,3.14-2.99c1.86-1.48,4.51-1.21,6.16,0.49c1.65,1.7,1.85,4.38,0.32,6.18
		c-0.91,1.07-2.04,1.96-3.04,2.91C39.16,8.42,36.95,6.21,34.7,3.95z"/>
</g>
</svg>
